<svg id="Layer_1" data-name="Layer 1" xmlns="http://www.w3.org/2000/svg" viewBox="0 0 504 146.14"><defs><style>.cls-1{fill:#3d1c66;}</style></defs><path class="cls-1" d="M52,112.6l-8.71,8.71a10.52,10.52,0,0,0,.14,15,10.75,10.75,0,0,0,15-.39l13.42-13.42L58.2,112.18A4.77,4.77,0,0,0,52,112.6Z"/><path class="cls-1" d="M44.22,24.84,58.93,39.55,73.81,54.42,89.94,70.56,100.27,57a4.77,4.77,0,0,0-.42-6.26L88.68,39.55l15.69-15.69a10.51,10.51,0,0,0,0-14.87h0A10.51,10.51,0,0,0,89.5,9L73.81,24.68,59.09,10A10.52,10.52,0,1,0,44.22,24.84Z"/><path class="cls-1" d="M105.34,122.28,88.68,105.62l18.16-18.16,16.66,16.66a10.51,10.51,0,0,0,14.87-14.87L121.71,72.58,137.4,56.89A10.51,10.51,0,1,0,122.53,42L106.84,57.71,92,72.58,73.81,90.74,55.65,72.58,71.78,56.45,58.2,46.12a4.76,4.76,0,0,0-6.25.42L40.77,57.71,25.9,72.58,10.21,88.28a10.51,10.51,0,0,0,0,14.87h0a10.53,10.53,0,0,0,14.87,0L40.77,87.46l18.16,18.15,14.88,14.88,16.66,16.66a10.51,10.51,0,0,0,14.87,0h0A10.51,10.51,0,0,0,105.34,122.28Z"/><path class="cls-1" d="M33.79,50.72,26.06,43A10.51,10.51,0,0,0,11.19,57.87L23.88,70.56,34.21,57A4.78,4.78,0,0,0,33.79,50.72Z"/><path class="cls-1" d="M209.32,127.06l-.6-5.39c-2.13,3.2-6.77,6.39-13.89,6.39-12.7,0-23.53-9.31-23.53-24.53s11.37-24.6,24.13-24.6c12.36,0,19.21,7.25,21.53,14.49l-8.77,3.13c-1.2-4.19-5.12-9-12.76-9-7.11,0-14.83,4.86-14.83,16,0,10.63,7,16.15,14.89,16.15,8.71,0,12.11-5.85,12.64-9.17h-14.9v-8h23.54v24.53Z"/><path class="cls-1" d="M253,117.69c-1.66,5.65-6.85,10.37-14.89,10.37-9,0-16.89-6.45-16.89-17.48,0-10.44,7.71-17.22,16.09-17.22,10.1,0,16.15,6.44,16.15,17,0,1.26-.13,2.59-.13,2.72H230a8,8,0,0,0,8.25,7.45c4.13,0,6.38-2.06,7.45-5ZM244.79,107c-.13-3.25-2.27-6.44-7.32-6.44a7.07,7.07,0,0,0-7.31,6.44Z"/><path class="cls-1" d="M267.67,127.06h-8.84V94.35h8.57v4.06c2-3.39,5.93-4.92,9.44-4.92,8.11,0,11.84,5.78,11.84,13v20.61h-8.84V108c0-3.65-1.79-6.52-6-6.52-3.85,0-6.12,3-6.12,6.79Z"/><path class="cls-1" d="M325.32,117.69c-1.65,5.65-6.84,10.37-14.88,10.37-9,0-16.89-6.45-16.89-17.48,0-10.44,7.71-17.22,16.09-17.22,10.1,0,16.15,6.44,16.15,17,0,1.26-.13,2.59-.13,2.72H302.25a8,8,0,0,0,8.25,7.45c4.13,0,6.38-2.06,7.45-5ZM317.09,107c-.13-3.25-2.27-6.44-7.32-6.44a7.07,7.07,0,0,0-7.31,6.44Z"/><path class="cls-1" d="M351.07,103.13a13.29,13.29,0,0,0-2.65-.27c-4.53,0-8.45,2.2-8.45,9.24v15h-8.84V94.35h8.57V99.2c2-4.31,6.52-5.11,9.31-5.11a19,19,0,0,1,2.06.13Z"/><path class="cls-1" d="M363.66,108.25l8-1.2c1.87-.27,2.46-1.2,2.46-2.33,0-2.32-1.79-4.25-5.52-4.25s-6,2.46-6.25,5.32l-7.85-1.66c.55-5.12,5.27-10.77,14-10.77,10.37,0,14.22,5.84,14.22,12.43v16.09a38.09,38.09,0,0,0,.4,5.18h-8.11a22.08,22.08,0,0,1-.33-3.92c-1.66,2.59-4.79,4.85-9.64,4.85-7,0-11.24-4.72-11.24-9.84C353.88,112.3,358.2,109.05,363.66,108.25Zm10.5,5.58v-1.46l-7.38,1.13c-2.25.33-4,1.6-4,4.12,0,1.93,1.4,3.79,4.25,3.79C370.71,121.41,374.16,119.62,374.16,113.83Z"/><path class="cls-1" d="M400.77,94.35h6.59v7.85h-6.59v13.69c0,2.86,1.34,3.79,3.86,3.79a12.44,12.44,0,0,0,2.73-.27v7.32a13.24,13.24,0,0,1-5,.8c-6.38,0-10.38-3.79-10.38-10.11V102.2h-5.91V94.35h1.66c3.46,0,5.05-2.26,5.05-5.18V84.58h8Z"/><path class="cls-1" d="M417.61,78.13a5.45,5.45,0,1,1-5.46,5.52A5.44,5.44,0,0,1,417.61,78.13Zm-4.4,48.93V94.35h8.85v32.71Z"/><path class="cls-1" d="M461.68,110.71c0,10-7.38,17.35-17.15,17.35s-17.15-7.31-17.15-17.35,7.38-17.35,17.15-17.35S461.68,100.6,461.68,110.71Zm-8.84,0c0-6.19-4-9.31-8.31-9.31s-8.31,3.12-8.31,9.31,4,9.3,8.31,9.3S452.84,116.89,452.84,110.71Z"/><path class="cls-1" d="M475.87,127.06H467V94.35h8.57v4.06c2-3.39,5.93-4.92,9.45-4.92,8.1,0,11.83,5.78,11.83,13v20.61H488V108c0-3.65-1.79-6.52-6-6.52-3.85,0-6.11,3-6.11,6.79Z"/><path class="cls-1" d="M188.11,48.86h-4.78V67h-9.24V19.88H192.5c9.18,0,15,6.32,15,14.49a13.38,13.38,0,0,1-10,13.37L207.59,67H197.35ZM190.77,41c4.65,0,7.38-2.65,7.38-6.51s-2.73-6.58-7.38-6.58h-7.44V41Z"/><path class="cls-1" d="M217.72,18.09a5.45,5.45,0,1,1-5.46,5.51A5.45,5.45,0,0,1,217.72,18.09ZM213.33,67V34.31h8.84V67Z"/><path class="cls-1" d="M234.75,56.25c.2,2.59,2.12,5,6,5,2.93,0,4.32-1.53,4.32-3.26,0-1.46-1-2.66-3.52-3.19l-4.32-1C230.89,52.39,228,48.6,228,44c0-5.85,5.19-10.7,12.24-10.7,9.3,0,12.43,5.92,12.83,9.44l-7.38,1.66c-.27-1.93-1.66-4.38-5.39-4.38-2.33,0-4.19,1.39-4.19,3.25,0,1.6,1.2,2.59,3,2.93l4.65,1c6.45,1.33,9.71,5.26,9.71,10,0,5.32-4.13,10.77-12.7,10.77-9.84,0-13.23-6.38-13.63-10.1Z"/><path class="cls-1" d="M263.35,18.09a5.45,5.45,0,1,1-5.46,5.51A5.45,5.45,0,0,1,263.35,18.09ZM259,67V34.31h8.84V67Z"/><path class="cls-1" d="M284.43,67h-8.84V34.31h8.57v4c2-3.39,5.92-4.92,9.44-4.92,8.11,0,11.84,5.79,11.84,13V67H296.6V47.94c0-3.66-1.8-6.52-6.06-6.52-3.85,0-6.11,3-6.11,6.78Z"/><path class="cls-1" d="M318.42,66.68a7.32,7.32,0,0,0,7.65,6.18c5.58,0,8.71-2.79,8.71-9.1v-2.4c-1.34,2.13-4.39,4.19-9.11,4.19-8.71,0-15.23-6.71-15.23-15.89,0-8.64,6.26-15.95,15.23-15.95,5.18,0,8.17,2.26,9.31,4.45V34.31h8.51V63.49c0,9-4.86,17.15-17.16,17.15-9,0-15-5.58-15.89-11.83Zm16.49-17c0-5-3.46-8.24-7.71-8.24s-7.85,3.19-7.85,8.24S322.61,58,327.2,58,334.91,54.72,334.91,49.66Z"/></svg>